<?xml version="1.0" encoding="UTF-8" standalone="no"?><!DOCTYPE svg PUBLIC "-//W3C//DTD SVG 1.1//EN" "http://www.w3.org/Graphics/SVG/1.1/DTD/svg11.dtd"><svg width="100%" height="100%" viewBox="0 0 500 500" version="1.1" xmlns="http://www.w3.org/2000/svg" xmlns:xlink="http://www.w3.org/1999/xlink" xml:space="preserve" style="fill-rule:evenodd;clip-rule:evenodd;stroke-linejoin:round;stroke-miterlimit:1.41421;"><g><path d="M500.4,126.348c0,-68.077 -55.27,-123.348 -123.347,-123.348l-246.696,0c-68.077,0 -123.348,55.271 -123.348,123.348l0,246.696c0,68.077 55.271,123.348 123.348,123.348l246.696,0c68.077,0 123.347,-55.271 123.347,-123.348l0,-246.696Z" style="fill:#6061ab;"/><circle cx="252.89" cy="249.153" r="218.319" style="fill:#fff;"/><ellipse cx="255.407" cy="250.798" rx="194.283" ry="245.644" style="fill:#6061ab;"/><path d="M456.972,513.411l-3.716,1.592c-71.146,-18.405 -133.619,-51.146 -187.42,-98.222l-12.743,0.53c-46.722,0 -82.648,-14.866 -107.779,-44.598c-25.131,-29.732 -37.697,-72.03 -37.697,-126.893c0,-56.633 13.185,-100.17 39.555,-130.61c26.37,-30.44 64.155,-45.66 113.354,-45.66c46.369,0 82.03,14.423 106.984,43.271c24.954,28.847 37.431,70.526 37.431,125.035c0,45.66 -8.672,83.179 -26.016,112.558c-17.344,29.378 -42.121,49.2 -74.331,59.464c50.97,35.75 107.78,59.465 170.43,71.146l1.593,5.309c-6.372,12.034 -12.92,21.06 -19.645,27.078ZM255.748,381.739c70.083,0 105.125,-46.722 105.125,-140.167c0,-91.32 -34.865,-136.981 -104.594,-136.981c-35.396,0 -61.765,11.327 -79.109,33.98c-17.344,22.653 -26.016,57.164 -26.016,103.532c0,93.091 34.865,139.636 104.594,139.636l0,0Z" style="fill:#fff;fill-rule:nonzero;"/><path d="M273.604,82.775l0,194.987l-152.738,0l152.738,-194.987Z" style="fill:#fff;"/><path d="M248.751,407.008l0,-199.391l146.223,0l-74.249,101.247l-71.974,98.144l0,0Z" style="fill:#fff;"/></g></svg>